# This file uses centimeters as units for non-parametric coordinates.

mtllib Crate_UpLOAD.mtl
g default
v -12.093035 -12.093035 12.093035
v 12.093035 -12.093035 12.093035
v -12.093035 12.093035 12.093035
v 12.093035 12.093035 12.093035
v -12.093035 12.093035 -12.093035
v 12.093035 12.093035 -12.093035
v -12.093035 -12.093035 -12.093035
v 12.093035 -12.093035 -12.093035
v -9.680413 12.093035 12.093035
v -9.680413 12.093035 -12.093035
v -9.680413 -12.093035 -12.093035
v -9.680413 -12.093035 12.093035
v 9.678424 12.093035 12.093035
v 9.678424 12.093035 -12.093035
v 9.678424 -12.093035 -12.093035
v 9.678424 -12.093035 12.093035
v 12.093035 9.665488 12.093035
v 9.678424 9.665488 12.093035
v -9.680413 9.665488 12.093035
v -12.093035 9.665488 12.093035
v -12.093035 9.665488 -12.093035
v -9.680413 9.665488 -12.093035
v 9.678424 9.665488 -12.093035
v 12.093035 9.665488 -12.093035
v 9.678424 -9.690051 12.093035
v -9.680413 -9.690051 12.093035
v -12.093035 -9.690051 12.093035
v -12.093035 -9.690051 -12.093035
v -9.680413 -9.690051 -12.093035
v 9.678424 -9.690051 -12.093035
v 12.093035 -9.690051 -12.093035
v 12.093035 -9.690051 12.093035
v 12.093035 -9.690051 9.685074
v 12.093035 -12.093035 9.685074
v 9.678424 -12.093035 9.685074
v -9.680413 -12.093035 9.685074
v -12.093035 -12.093035 9.685074
v -12.093035 -9.690051 9.685074
v -12.093035 9.665488 9.685074
v -12.093035 12.093035 9.685074
v -9.680413 12.093035 9.685074
v 9.678424 12.093035 9.685074
v 12.093035 12.093035 9.685074
v 12.093035 9.665488 9.685074
v 12.093035 -9.690051 -9.683068
v 12.093035 -12.093035 -9.683068
v 9.678424 -12.093035 -9.683068
v -9.680413 -12.093035 -9.683068
v -12.093035 -12.093035 -9.683068
v -12.093035 -9.690051 -9.683068
v -12.093035 9.665488 -9.683068
v -12.093035 12.093035 -9.683068
v -9.680413 12.093035 -9.683068
v 9.678424 12.093035 -9.683068
v 12.093035 12.093035 -9.683068
v 12.093035 9.665488 -9.683068
v -9.680413 -9.690051 11.873613
v -9.680413 9.665488 11.873613
v 9.678424 -9.690051 11.873613
v 9.678424 9.665488 11.873613
v -9.680413 -9.690051 -11.873613
v 9.678424 -9.690051 -11.873613
v -9.680413 9.665488 -11.873613
v 9.678424 9.665488 -11.873613
v -9.680413 -11.873613 -9.683068
v -9.680413 -11.873613 9.685074
v 9.678424 -11.873613 -9.683068
v 9.678424 -11.873613 9.685074
v -11.873613 -9.690051 -9.683068
v -11.873613 9.665488 -9.683068
v -11.873613 -9.690051 9.685074
v -11.873613 9.665488 9.685074
v -9.680413 11.873613 9.685074
v 9.678424 11.873613 9.685074
v 9.678424 11.873613 -9.683068
v -9.680413 11.873613 -9.683068
v 11.873613 9.665488 9.685074
v 11.873613 -9.690051 9.685074
v 11.873613 -9.690051 -9.683068
v 11.873613 9.665488 -9.683068
vt 1.000000 1.000000
vt 1.000000 0.000000
vt 0.000000 1.000000
vt 1.000000 1.000000
vt 1.000000 0.000000
vt 1.000000 1.000000
vt 0.000000 -0.000000
vt 0.000000 1.000000
vt 0.000000 0.000000
vt 1.000000 0.000000
vt 1.000000 0.000000
vt 0.000000 0.000000
vt 1.000000 1.000000
vt -0.000000 1.000000
vt 0.000000 -0.000000
vt 1.000000 0.000000
vt 0.000000 1.000000
vt 1.000000 1.000000
vt 0.000000 0.000000
vt 0.000000 1.000000
vt 0.099753 1.000000
vt 0.900247 1.000000
vt 1.000000 0.099753
vt 0.900247 0.000000
vt 0.099753 0.000000
vt 0.000000 0.099752
vt 0.900165 1.000000
vt 0.099835 1.000000
vt 1.000000 0.900165
vt 0.099835 -0.000000
vt 0.900165 0.000000
vt 0.000000 0.900165
vt 1.000000 0.899630
vt 0.899630 1.000000
vt 0.899728 0.899630
vt 0.100191 0.899630
vt 0.100370 1.000000
vt 0.000000 0.899630
vt 0.100370 0.000000
vt 1.000000 0.899630
vt 0.899809 0.899630
vt 0.100272 0.899630
vt -0.000000 0.899630
vt 0.899630 0.000000
vt 0.899720 0.099354
vt 0.100199 0.099354
vt 0.900646 1.000000
vt 0.000000 0.099354
vt 0.900646 0.000000
vt 1.000000 0.099354
vt 0.899801 0.099354
vt 0.100280 0.099354
vt 0.000000 0.099354
vt 0.099354 0.000000
vt 1.000000 0.099354
vt 0.099354 1.000000
vt 0.099799 0.900440
vt 0.099560 1.000000
vt 0.000000 0.900440
vt 0.100001 0.900165
vt 0.100002 0.099753
vt 1.000000 0.900440
vt 0.099560 -0.000000
vt 0.900201 0.900440
vt 0.100807 0.900440
vt 0.000000 0.900440
vt 1.000000 0.900440
vt 0.899193 0.900440
vt 0.099799 0.099643
vt 0.900357 1.000000
vt 0.000000 0.099643
vt 0.899916 0.900165
vt 0.899916 0.099753
vt 1.000000 0.099643
vt 0.900357 -0.000000
vt 0.900201 0.099643
vt 0.100806 0.099643
vt 0.000000 0.099643
vt 1.000000 0.099643
vt 0.899194 0.099643
vt 0.104721 0.899630
vt 0.104729 0.099354
vt 0.895189 0.099354
vt 0.895198 0.899630
vt 0.104811 0.099354
vt 0.895271 0.099354
vt 0.895279 0.899630
vt 0.104802 0.899630
vt 0.104532 0.099753
vt 0.895386 0.099753
vt 0.895387 0.900165
vt 0.104531 0.900165
vt 0.105338 0.099643
vt 0.895669 0.099643
vt 0.895668 0.900440
vt 0.105339 0.900440
vt 0.894661 0.900440
vt 0.104332 0.900440
vt 0.104331 0.099643
vt 0.894662 0.099643
vt 0.900165 0.099560
vt 0.900165 0.900357
vt 0.900165 0.900357
vt 0.900165 0.099560
vt 0.099753 0.900357
vt 0.099753 0.099560
vt 0.099753 0.099560
vt 0.099753 0.900357
vt 0.000000 0.900357
vt 0.099753 1.000000
vt 0.000000 1.000000
vt 0.000000 0.099560
vt 0.900165 1.000000
vt 0.000000 0.000000
vt 0.099753 0.000000
vt 1.000000 0.900357
vt 1.000000 1.000000
vt 0.900165 0.000000
vt 1.000000 0.099560
vt 1.000000 0.000000
vt 0.951904 0.990472
vt 0.048096 0.990472
vt 0.048096 0.979143
vt 0.951904 0.979143
vt 0.951904 0.990475
vt 0.048096 0.990475
vt 0.048096 0.979141
vt 0.951904 0.979141
vt 0.951904 0.990475
vt 0.048096 0.990475
vt 0.048096 0.979141
vt 0.951904 0.979141
vt 0.048096 0.979141
vt 0.951904 0.979141
vt 0.951904 0.990475
vt 0.048096 0.990475
vt 0.048096 0.979141
vt 0.951904 0.979141
vt 0.951904 0.990475
vt 0.048096 0.990475
vt 0.048096 0.979143
vt 0.951904 0.979143
vt 0.951904 0.990472
vt 0.048096 0.990472
vt 0.048096 0.979143
vt 0.951904 0.979143
vt 0.951904 0.990472
vt 0.048096 0.990472
vt 0.990650 0.053440
vt 0.990650 0.946560
vt 0.979321 0.946560
vt 0.979321 0.053440
vt 0.020087 0.053440
vt 0.020087 0.946560
vt 0.008758 0.946560
vt 0.008758 0.053440
vt 0.008754 0.946560
vt 0.008754 0.053440
vt 0.020090 0.053440
vt 0.020090 0.946560
vt 0.990653 0.053440
vt 0.990653 0.946560
vt 0.979317 0.946560
vt 0.979317 0.053440
vt 0.020091 0.053440
vt 0.020091 0.946560
vt 0.008754 0.946560
vt 0.008754 0.053440
vt 0.008754 0.946560
vt 0.008754 0.053440
vt 0.020091 0.053440
vt 0.020091 0.946560
vt 0.045424 0.012003
vt 0.954576 0.012003
vt 0.954576 0.023338
vt 0.045424 0.023338
vt 0.954576 0.023338
vt 0.045424 0.023338
vt 0.045424 0.012003
vt 0.954576 0.012003
vt 0.990653 0.053440
vt 0.990653 0.946560
vt 0.979317 0.946560
vt 0.979317 0.053440
vt 0.979317 0.946560
vt 0.979317 0.053440
vt 0.990653 0.053440
vt 0.990653 0.946560
vt 0.979321 0.946560
vt 0.979321 0.053440
vt 0.990650 0.053440
vt 0.990650 0.946560
vt 0.979321 0.946560
vt 0.979321 0.053440
vt 0.990650 0.053440
vt 0.990650 0.946560
vt 0.990653 0.053440
vt 0.990653 0.946560
vt 0.979317 0.946560
vt 0.979317 0.053440
vt 0.045424 0.012003
vt 0.954576 0.012003
vt 0.954576 0.023338
vt 0.045424 0.023338
vt 0.954576 -0.736723
vt 0.045424 -0.736723
vt 0.045424 -0.748057
vt 0.954576 -0.748057
vt 0.008754 0.946560
vt 0.008754 0.053440
vt 0.020091 0.053440
vt 0.020091 0.946560
vt 0.954576 0.023335
vt 0.045424 0.023335
vt 0.045424 0.012006
vt 0.954576 0.012006
vn 0.000000 0.000000 1.000000
vn 0.000000 0.000000 1.000000
vn 0.000000 0.000000 1.000000
vn 0.000000 0.000000 1.000000
vn 0.000000 1.000000 0.000000
vn 0.000000 1.000000 0.000000
vn 0.000000 1.000000 0.000000
vn 0.000000 1.000000 0.000000
vn 0.000000 0.000000 -1.000000
vn 0.000000 0.000000 -1.000000
vn 0.000000 0.000000 -1.000000
vn 0.000000 0.000000 -1.000000
vn 0.000000 -1.000000 0.000000
vn 0.000000 -1.000000 0.000000
vn 0.000000 -1.000000 0.000000
vn 0.000000 -1.000000 0.000000
vn 1.000000 0.000000 0.000000
vn 1.000000 0.000000 0.000000
vn 1.000000 0.000000 0.000000
vn 1.000000 0.000000 0.000000
vn -1.000000 0.000000 0.000000
vn -1.000000 0.000000 0.000000
vn -1.000000 0.000000 0.000000
vn -1.000000 0.000000 0.000000
vn 0.000000 1.000000 0.000000
vn 0.000000 1.000000 0.000000
vn 0.000000 0.000000 -1.000000
vn 0.000000 0.000000 -1.000000
vn 0.000000 -1.000000 0.000000
vn 0.000000 -1.000000 0.000000
vn 0.000000 0.000000 1.000000
vn 0.000000 0.000000 1.000000
vn 0.000000 1.000000 0.000000
vn 0.000000 1.000000 0.000000
vn 0.000000 0.000000 -1.000000
vn 0.000000 0.000000 -1.000000
vn 0.000000 -1.000000 0.000000
vn 0.000000 -1.000000 0.000000
vn 0.000000 0.000000 1.000000
vn 0.000000 0.000000 1.000000
vn 0.000000 0.000000 1.000000
vn 0.000000 0.000000 1.000000
vn 0.000000 0.000000 1.000000
vn 0.000000 0.000000 1.000000
vn 0.000000 0.000000 1.000000
vn 0.000000 0.000000 1.000000
vn 0.000000 0.000000 1.000000
vn 0.000000 0.000000 1.000000
vn -1.000000 0.000000 0.000000
vn -1.000000 0.000000 0.000000
vn -1.000000 0.000000 0.000000
vn -1.000000 0.000000 0.000000
vn 0.000000 0.000000 -1.000000
vn 0.000000 0.000000 -1.000000
vn 0.000000 0.000000 -1.000000
vn 0.000000 0.000000 -1.000000
vn 0.000000 0.000000 -1.000000
vn 0.000000 0.000000 -1.000000
vn 0.000000 0.000000 -1.000000
vn 0.000000 0.000000 -1.000000
vn 1.000000 0.000000 0.000000
vn 1.000000 0.000000 0.000000
vn 1.000000 0.000000 0.000000
vn 1.000000 0.000000 0.000000
vn 0.000000 0.000000 1.000000
vn 0.000000 0.000000 1.000000
vn 0.000000 0.000000 1.000000
vn 0.000000 0.000000 1.000000
vn 0.000000 0.000000 -1.000000
vn 0.000000 0.000000 -1.000000
vn 0.000000 0.000000 -1.000000
vn 0.000000 0.000000 -1.000000
vn 1.000000 0.000000 0.000000
vn 1.000000 0.000000 0.000000
vn 1.000000 0.000000 0.000000
vn 1.000000 0.000000 0.000000
vn 0.000000 -1.000000 0.000000
vn 0.000000 -1.000000 0.000000
vn 0.000000 -1.000000 0.000000
vn 0.000000 -1.000000 0.000000
vn 0.000000 -1.000000 0.000000
vn 0.000000 -1.000000 0.000000
vn 0.000000 -1.000000 0.000000
vn 0.000000 -1.000000 0.000000
vn -1.000000 0.000000 0.000000
vn -1.000000 0.000000 0.000000
vn -1.000000 0.000000 0.000000
vn -1.000000 0.000000 0.000000
vn -1.000000 0.000000 0.000000
vn -1.000000 0.000000 0.000000
vn -1.000000 0.000000 0.000000
vn -1.000000 0.000000 0.000000
vn 0.000000 1.000000 0.000000
vn 0.000000 1.000000 0.000000
vn 0.000000 1.000000 0.000000
vn 0.000000 1.000000 0.000000
vn 0.000000 1.000000 0.000000
vn 0.000000 1.000000 0.000000
vn 0.000000 1.000000 0.000000
vn 0.000000 1.000000 0.000000
vn 1.000000 0.000000 0.000000
vn 1.000000 0.000000 0.000000
vn 1.000000 0.000000 0.000000
vn 1.000000 0.000000 0.000000
vn 0.000000 -1.000000 0.000000
vn 0.000000 -1.000000 0.000000
vn 0.000000 -1.000000 0.000000
vn 0.000000 -1.000000 0.000000
vn -1.000000 0.000000 0.000000
vn -1.000000 0.000000 0.000000
vn -1.000000 0.000000 0.000000
vn -1.000000 0.000000 0.000000
vn 0.000000 1.000000 0.000000
vn 0.000000 1.000000 0.000000
vn 0.000000 1.000000 0.000000
vn 0.000000 1.000000 0.000000
vn 1.000000 0.000000 0.000000
vn 1.000000 0.000000 0.000000
vn 1.000000 0.000000 0.000000
vn 1.000000 0.000000 0.000000
vn 1.000000 0.000000 0.000000
vn 1.000000 0.000000 0.000000
vn 1.000000 0.000000 0.000000
vn 1.000000 0.000000 0.000000
vn 0.000000 1.000000 0.000000
vn 0.000000 1.000000 0.000000
vn 0.000000 1.000000 0.000000
vn 0.000000 1.000000 0.000000
vn -1.000000 0.000000 0.000000
vn -1.000000 0.000000 0.000000
vn -1.000000 0.000000 0.000000
vn -1.000000 0.000000 0.000000
vn 0.000000 -1.000000 0.000000
vn 0.000000 -1.000000 0.000000
vn 0.000000 -1.000000 0.000000
vn 0.000000 -1.000000 0.000000
vn 0.000000 1.000000 0.000000
vn 0.000000 1.000000 0.000000
vn 0.000000 1.000000 0.000000
vn 0.000000 1.000000 0.000000
vn 1.000000 0.000000 0.000000
vn 1.000000 0.000000 0.000000
vn 1.000000 0.000000 0.000000
vn 1.000000 0.000000 0.000000
vn 0.000000 -1.000000 0.000000
vn 0.000000 -1.000000 0.000000
vn 0.000000 -1.000000 0.000000
vn 0.000000 -1.000000 0.000000
vn -1.000000 0.000000 0.000000
vn -1.000000 0.000000 0.000000
vn -1.000000 0.000000 0.000000
vn -1.000000 0.000000 0.000000
vn 1.000000 0.000000 0.000000
vn 1.000000 0.000000 0.000000
vn 1.000000 0.000000 0.000000
vn 1.000000 0.000000 0.000000
vn 0.000000 0.000000 1.000000
vn 0.000000 0.000000 1.000000
vn 0.000000 0.000000 1.000000
vn 0.000000 0.000000 1.000000
vn -1.000000 0.000000 0.000000
vn -1.000000 0.000000 0.000000
vn -1.000000 0.000000 0.000000
vn -1.000000 0.000000 0.000000
vn 0.000000 0.000000 -1.000000
vn 0.000000 0.000000 -1.000000
vn 0.000000 0.000000 -1.000000
vn 0.000000 0.000000 -1.000000
vn 0.000000 0.000000 1.000000
vn 0.000000 0.000000 1.000000
vn 0.000000 0.000000 1.000000
vn 0.000000 0.000000 1.000000
vn 0.000000 1.000000 0.000000
vn 0.000000 1.000000 0.000000
vn 0.000000 1.000000 0.000000
vn 0.000000 1.000000 0.000000
vn 0.000000 0.000000 -1.000000
vn 0.000000 0.000000 -1.000000
vn 0.000000 0.000000 -1.000000
vn 0.000000 0.000000 -1.000000
vn 0.000000 -1.000000 0.000000
vn 0.000000 -1.000000 0.000000
vn 0.000000 -1.000000 0.000000
vn 0.000000 -1.000000 0.000000
vn 0.000000 0.000000 -1.000000
vn 0.000000 0.000000 -1.000000
vn 0.000000 0.000000 -1.000000
vn 0.000000 0.000000 -1.000000
vn -1.000000 0.000000 0.000000
vn -1.000000 0.000000 0.000000
vn -1.000000 0.000000 0.000000
vn -1.000000 0.000000 0.000000
vn 0.000000 0.000000 1.000000
vn 0.000000 0.000000 1.000000
vn 0.000000 0.000000 1.000000
vn 0.000000 0.000000 1.000000
vn 1.000000 0.000000 0.000000
vn 1.000000 0.000000 0.000000
vn 1.000000 0.000000 0.000000
vn 1.000000 0.000000 0.000000
vn 0.000000 0.000000 -1.000000
vn 0.000000 0.000000 -1.000000
vn 0.000000 0.000000 -1.000000
vn 0.000000 0.000000 -1.000000
vn 0.000000 1.000000 0.000000
vn 0.000000 1.000000 0.000000
vn 0.000000 1.000000 0.000000
vn 0.000000 1.000000 0.000000
vn 0.000000 0.000000 1.000000
vn 0.000000 0.000000 1.000000
vn 0.000000 0.000000 1.000000
vn 0.000000 0.000000 1.000000
vn 0.000000 -1.000000 0.000000
vn 0.000000 -1.000000 0.000000
vn 0.000000 -1.000000 0.000000
vn 0.000000 -1.000000 0.000000
g Crate_01
usemtl blinn2SG
f 1/19/1 12/25/2 26/46/3 27/48/4
f 52/109/5 53/105/6 10/110/7 5/111/8
f 28/50/9 29/51/10 11/24/11 7/16/12
f 7/5/13 11/23/14 48/73/15 49/75/16
f 46/71/17 8/9/18 31/54/19 45/69/20
f 7/11/21 49/74/22 50/76/23 28/49/24
f 53/105/6 54/102/25 14/113/26 10/110/7
f 11/24/11 29/51/10 30/52/27 15/30/28
f 48/73/15 11/23/14 15/29/29 47/72/30
f 26/46/3 12/25/2 16/31/31 25/45/32
f 54/102/25 55/116/33 6/117/34 14/113/26
f 15/30/28 30/52/27 31/53/35 8/15/36
f 47/72/30 15/29/29 8/6/37 46/70/38
f 32/55/39 25/45/32 16/31/31 2/2/40
f 13/27/41 18/35/42 17/33/43 4/4/44
f 9/21/45 19/36/46 18/35/42 13/27/41
f 20/38/47 19/36/46 9/21/45 3/20/48
f 21/39/49 51/77/50 52/78/51 5/12/52
f 5/13/53 10/22/54 22/41/55 21/40/56
f 23/42/57 22/41/55 10/22/54 14/28/58
f 24/43/59 23/42/57 14/28/58 6/14/60
f 56/80/61 24/44/62 6/10/63 55/79/64
f 58/81/65 57/82/66 59/83/67 60/84/68
f 27/48/4 26/46/3 19/36/46 20/38/47
f 28/49/24 50/76/23 51/77/50 21/39/49
f 21/40/56 22/41/55 29/51/10 28/50/9
f 62/85/69 61/86/70 63/87/71 64/88/72
f 31/53/35 30/52/27 23/42/57 24/43/59
f 56/80/61 45/69/20 31/54/19 24/44/62
f 18/35/42 25/45/32 32/55/39 17/33/43
f 2/17/73 34/59/74 33/57/75 32/56/76
f 16/32/77 35/60/78 34/58/79 2/8/80
f 12/26/81 36/61/82 35/60/78 16/32/77
f 37/63/83 36/61/82 12/26/81 1/7/84
f 38/64/85 37/62/86 1/1/87 27/47/88
f 39/65/89 38/64/85 27/47/88 20/37/90
f 40/66/91 39/65/89 20/37/90 3/3/92
f 3/114/93 9/115/94 41/106/95 40/112/96
f 9/115/94 13/118/97 42/101/98 41/106/95
f 13/118/97 4/120/99 43/119/100 42/101/98
f 17/34/101 44/68/102 43/67/103 4/18/104
f 32/56/76 33/57/75 44/68/102 17/34/101
f 34/59/74 46/71/17 45/69/20 33/57/75
f 35/60/78 47/72/30 46/70/38 34/58/79
f 66/89/105 65/90/106 67/91/107 68/92/108
f 49/75/16 48/73/15 36/61/82 37/63/83
f 50/76/23 49/74/22 37/62/86 38/64/85
f 70/93/109 69/94/110 71/95/111 72/96/112
f 52/78/51 51/77/50 39/65/89 40/66/91
f 40/112/96 41/106/95 53/105/6 52/109/5
f 73/107/113 74/104/114 75/103/115 76/108/116
f 42/101/98 43/119/100 55/116/33 54/102/25
f 44/68/102 56/80/61 55/79/64 43/67/103
f 77/97/117 78/98/118 79/99/119 80/100/120
f 19/169/121 26/170/122 57/171/123 58/172/124
f 26/173/125 25/174/126 59/175/127 57/176/128
f 25/165/129 18/166/130 60/167/131 59/168/132
f 18/177/133 19/178/134 58/179/135 60/180/136
f 30/205/137 29/206/138 61/207/139 62/208/140
f 29/197/141 22/198/142 63/199/143 61/200/144
f 22/201/145 23/202/146 64/203/147 63/204/148
f 23/209/149 30/210/150 62/211/151 64/212/152
f 36/145/153 48/146/154 65/147/155 66/148/156
f 48/133/157 47/134/158 67/135/159 65/136/160
f 47/141/161 35/142/162 68/143/163 67/144/164
f 35/137/165 36/138/166 66/139/167 68/140/168
f 51/185/169 50/186/170 69/187/171 70/188/172
f 50/189/173 38/190/174 71/191/175 69/192/176
f 38/181/177 39/182/178 72/183/179 71/184/180
f 39/193/181 51/194/182 70/195/183 72/196/184
f 41/129/185 42/130/186 74/131/187 73/132/188
f 42/213/189 54/214/190 75/215/191 74/216/192
f 54/125/193 53/126/194 76/127/195 75/128/196
f 53/121/197 41/122/198 73/123/199 76/124/200
f 44/157/201 33/158/202 78/159/203 77/160/204
f 33/153/205 45/154/206 79/155/207 78/156/208
f 45/161/209 56/162/210 80/163/211 79/164/212
f 56/149/213 44/150/214 77/151/215 80/152/216
